<svg width="53" height="30" viewBox="0 0 53 30" fill="none" xmlns="http://www.w3.org/2000/svg">
<path d="M0 4C0 1.79086 1.79086 0 4 0H49C51.2091 0 53 1.79086 53 4V26C53 28.2091 51.2091 30 49 30H4C1.79086 30 0 28.2091 0 26V4Z" fill="white"/>
<path fill-rule="evenodd" clip-rule="evenodd" d="M33.3961 8.58333V19.5048C31.8964 19.9348 28.5269 20.3733 27.0468 18.6878C25.1967 16.5809 26.332 13.9151 27.0468 13.0551C27.7616 12.1952 29.0651 11.9372 30.0322 11.9372C30.8059 11.9372 31.2516 12.1092 31.3778 12.1952V8.58333H33.3961ZM31.3357 13.958C31.0835 13.6571 29.78 13.2701 28.8549 13.958C28.1319 14.4956 27.6904 15.749 28.3923 17.1398C29.0652 18.4728 30.5368 18.2004 31.3357 17.9998V13.958Z" fill="#373737"/>
<path fill-rule="evenodd" clip-rule="evenodd" d="M49.875 8.58333V19.5048C48.3753 19.9348 45.0058 20.3733 43.5257 18.6878C41.6756 16.5809 42.8109 13.9151 43.5257 13.0551C44.2405 12.1952 45.544 11.9372 46.5111 11.9372C47.2848 11.9372 47.7305 12.1092 47.8567 12.1952V8.58333H49.875ZM47.8146 13.958C47.5624 13.6571 46.2589 13.2701 45.3338 13.958C44.6108 14.4956 44.1693 15.749 44.8713 17.1398C45.5441 18.4728 47.0157 18.2004 47.8146 17.9998V13.958Z" fill="#373737"/>
<path d="M34.6155 12.3286C36.1152 11.8986 39.4847 11.46 40.9648 13.1455C42.8149 15.2524 41.6796 17.9183 40.9648 18.7782C40.25 19.6382 38.9465 19.8962 37.9794 19.8962C37.8593 19.8962 37.7472 19.892 37.643 19.8847V18.2438C38.1205 18.2966 38.6873 18.2244 39.1567 17.8754C39.8797 17.3377 40.3212 16.0843 39.6192 14.6935C38.9464 13.3605 37.4748 13.6329 36.6759 13.8336V17.8754C36.6876 17.8894 36.7017 17.9036 36.7179 17.9179V19.6842C36.6819 19.6673 36.6538 19.6518 36.6338 19.6382V23.25H34.6155V12.3286Z" fill="#373737"/>
<path d="M21.123 8.62598L14.9854 12.3096C14.512 12.5938 14.3585 13.2082 14.6426 13.6816C14.9268 14.1549 15.5412 14.3084 16.0146 14.0244L21.917 10.4824V20.5L12.75 26L3.125 20.5V10.8652L11.292 15.5771V22.792C11.2922 23.3441 11.7398 23.792 12.292 23.792C12.844 23.7918 13.2918 23.344 13.292 22.792V14.4229L3.43164 8.7334L3.58301 8.58301L12.292 4L21.123 8.62598Z" fill="#DC0032"/>
</svg>
