<svg width="53" height="30" viewBox="0 0 53 30" fill="none" xmlns="http://www.w3.org/2000/svg">
<g clip-path="url(#clip0_5657_13910)">
<path d="M49.6192 -2.03772H3.38081C1.51344 -2.03772 0 -0.524276 0 1.34309V4.95357V6.13135V23.8687V25.0465V28.6569C0 30.5243 1.51344 32.0377 3.38081 32.0377H49.6192C51.4866 32.0377 53 30.5243 53 28.6569V25.0465V23.8687V6.13135V4.95357V1.34309C53 -0.524276 51.4866 -2.03772 49.6192 -2.03772Z" fill="#1C1818"/>
<path d="M11.7169 26.891V24.5019C11.7169 23.5879 11.1604 22.9896 10.2046 22.9896C9.727 22.9896 9.20701 23.1475 8.85014 23.6669C8.5716 23.2311 8.17292 22.9896 7.57461 22.9896C7.17593 22.9896 6.77667 23.1104 6.46102 23.5461V23.0685H5.62598V26.891H6.46102V24.7804C6.46102 24.1032 6.81848 23.7829 7.37498 23.7829C7.93148 23.7829 8.21002 24.1403 8.21002 24.7804V26.891H9.04507V24.7804C9.04507 24.1032 9.44374 23.7829 9.95902 23.7829C10.5155 23.7829 10.7941 24.1403 10.7941 24.7804V26.891H11.7169ZM24.103 23.0685H22.7485V21.9137H21.9135V23.0691H21.1573V23.8253H21.9135V25.579C21.9135 26.4558 22.2709 26.9705 23.2261 26.9705C23.5836 26.9705 23.9822 26.8498 24.2608 26.692L24.0193 25.9729C23.7779 26.1308 23.4999 26.1726 23.3003 26.1726C22.9016 26.1726 22.7438 25.9311 22.7438 25.5372V23.8253H24.0982V23.0691L24.103 23.0685ZM31.1914 22.9849C30.7138 22.9849 30.3935 23.2264 30.1938 23.5414V23.0638H29.3588V26.8863H30.1938V24.7339C30.1938 24.0985 30.4724 23.7363 30.9918 23.7363C31.1496 23.7363 31.3492 23.7782 31.5112 23.8153L31.7526 23.0173C31.5854 22.9849 31.3486 22.9849 31.1914 22.9849ZM20.4795 23.3842C20.0808 23.1056 19.5238 22.9855 18.9254 22.9855C17.9697 22.9855 17.3343 23.4631 17.3343 24.2192C17.3343 24.8546 17.8119 25.2168 18.6469 25.3328L19.0456 25.3746C19.4814 25.4535 19.7228 25.5743 19.7228 25.7733C19.7228 26.0519 19.4024 26.2509 18.8459 26.2509C18.2894 26.2509 17.8484 26.0513 17.5704 25.8522L17.1717 26.4876C17.6075 26.808 18.2064 26.9652 18.8047 26.9652C19.9183 26.9652 20.5584 26.4458 20.5584 25.7315C20.5584 25.0543 20.039 24.6968 19.2458 24.5761L18.8471 24.5343C18.4897 24.4925 18.2117 24.4136 18.2117 24.1768C18.2117 23.8983 18.4903 23.7411 18.9307 23.7411C19.4083 23.7411 19.8865 23.9407 20.1274 24.0614L20.4795 23.3842ZM42.6959 22.9849C42.2184 22.9849 41.898 23.2264 41.6984 23.5414V23.0638H40.8633V26.8863H41.6984V24.7339C41.6984 24.0985 41.9769 23.7363 42.4963 23.7363C42.6541 23.7363 42.8538 23.7782 43.0157 23.8153L43.2572 23.0267C43.0946 22.9849 42.8585 22.9849 42.6959 22.9849ZM32.0265 24.9801C32.0265 26.1355 32.8244 26.9699 34.0581 26.9699C34.6146 26.9699 35.0139 26.8492 35.4126 26.5342L35.0139 25.8569C34.6935 26.0984 34.3785 26.2144 34.0163 26.2144C33.3391 26.2144 32.8609 25.7368 32.8609 24.9807C32.8609 24.2616 33.3385 23.784 34.0163 23.7469C34.3738 23.7469 34.6935 23.8677 35.0139 24.1044L35.4126 23.4272C35.0139 23.1068 34.6146 22.9914 34.0581 22.9914C32.8244 22.9849 32.0265 23.8247 32.0265 24.9801ZM39.7503 24.9801V23.0685H38.9153V23.5461C38.6367 23.1887 38.2381 22.9896 37.7187 22.9896C36.6422 22.9896 35.8071 23.8247 35.8071 24.9795C35.8071 26.1343 36.6422 26.9693 37.7187 26.9693C38.2752 26.9693 38.6744 26.7697 38.9153 26.4128V26.8904H39.7503V24.9801ZM36.684 24.9801C36.684 24.3029 37.1198 23.7464 37.8394 23.7464C38.5166 23.7464 38.9948 24.2658 38.9948 24.9801C38.9948 25.6573 38.5172 26.2138 37.8394 26.2138C37.1245 26.172 36.684 25.6526 36.684 24.9801ZM26.6911 22.9849C25.5775 22.9849 24.7796 23.7829 24.7796 24.9748C24.7796 26.1714 25.5775 26.9646 26.7323 26.9646C27.2888 26.9646 27.8459 26.8068 28.2864 26.4452L27.8877 25.8469C27.5674 26.0884 27.1687 26.2456 26.7742 26.2456C26.2548 26.2456 25.7395 26.0042 25.6193 25.3316H28.4442C28.4442 25.2109 28.4442 25.132 28.4442 25.0113C28.4819 23.7829 27.7629 22.9849 26.6911 22.9849ZM26.6911 23.704C27.2105 23.704 27.568 24.0243 27.6469 24.6179H25.657C25.7359 24.1032 26.0928 23.704 26.6911 23.704ZM47.4371 24.9801V21.5563H46.602V23.5461C46.3235 23.1887 45.9248 22.9896 45.4054 22.9896C44.3289 22.9896 43.4939 23.8247 43.4939 24.9795C43.4939 26.1343 44.3289 26.9693 45.4054 26.9693C45.9619 26.9693 46.3612 26.7697 46.602 26.4128V26.8904H47.4371V24.9801ZM44.3707 24.9801C44.3707 24.3029 44.8065 23.7464 45.5261 23.7464C46.2034 23.7464 46.6815 24.2658 46.6815 24.9801C46.6815 25.6573 46.204 26.2138 45.5261 26.2138C44.8065 26.172 44.3707 25.6526 44.3707 24.9801ZM16.4162 24.9801V23.0685H15.5811V23.5461C15.3026 23.1887 14.9039 22.9896 14.3845 22.9896C13.308 22.9896 12.473 23.8247 12.473 24.9795C12.473 26.1343 13.308 26.9693 14.3845 26.9693C14.941 26.9693 15.3403 26.7697 15.5811 26.4128V26.8904H16.4162V24.9801ZM13.3127 24.9801C13.3127 24.3029 13.7485 23.7464 14.4681 23.7464C15.1454 23.7464 15.6235 24.2658 15.6235 24.9801C15.6235 25.6573 15.146 26.2138 14.4681 26.2138C13.7485 26.172 13.3127 25.6526 13.3127 24.9801Z" fill="#D4D4D4"/>
<path d="M30.2143 4.34692H22.7236V17.8089H30.2143V4.34692Z" fill="#FF5A00"/>
<path d="M23.2363 11.0768C23.2363 8.34144 24.5224 5.91404 26.4952 4.34583C25.043 3.20397 23.2115 2.51379 21.2134 2.51379C16.4799 2.51379 12.6504 6.34334 12.6504 11.0768C12.6504 15.8103 16.4799 19.6399 21.2128 19.6399C23.2109 19.6399 25.0424 18.9497 26.4946 17.8078C24.5189 16.2614 23.2363 13.8116 23.2363 11.0768Z" fill="#EB001B"/>
<path d="M40.337 11.0768C40.337 15.8103 36.5074 19.6399 31.7739 19.6399C29.7758 19.6399 27.9444 18.9497 26.4922 17.8078C28.4903 16.2367 29.7511 13.8116 29.7511 11.0768C29.7511 8.34203 28.465 5.91404 26.4922 4.34583C27.9414 3.20397 29.7735 2.51379 31.7716 2.51379C36.5074 2.51379 40.337 6.36807 40.337 11.0768Z" fill="#F79E1B"/>
<path d="M2.35556 28.6569V25.0465V23.8687V6.13135V4.95357V1.34309C2.35556 -0.524276 3.869 -2.03772 5.73637 -2.03772H3.38081C1.51344 -2.03772 0 -0.524276 0 1.34309V4.95357V25.0465V28.6569C0 30.5243 1.51344 32.0377 3.38081 32.0377H5.73637C3.869 32.0377 2.35556 30.5243 2.35556 28.6569Z" fill="#1E1C1C"/>
</g>
<defs>
<clipPath id="clip0_5657_13910">
<path d="M0 4C0 1.79086 1.79086 0 4 0H49C51.2091 0 53 1.79086 53 4V26C53 28.2091 51.2091 30 49 30H4C1.79086 30 0 28.2091 0 26V4Z" fill="white"/>
</clipPath>
</defs>
</svg>
