<svg width="53" height="30" viewBox="0 0 53 30" fill="none" xmlns="http://www.w3.org/2000/svg">
<path d="M0 4C0 1.79086 1.79086 0 4 0H49C51.2091 0 53 1.79086 53 4V26C53 28.2091 51.2091 30 49 30H4C1.79086 30 0 28.2091 0 26V4Z" fill="white"/>
<path d="M39.3317 12.0146H36.7952C36.646 12.0146 36.4968 12.1697 36.4222 12.3248L35.3778 19.1485C35.3778 19.3036 35.4524 19.3812 35.6016 19.3812H36.9444C37.0937 19.3812 37.1683 19.3036 37.1683 19.1485L37.4667 17.21C37.4667 17.0549 37.6159 16.8998 37.8397 16.8998H38.6603C40.3762 16.8998 41.346 16.0468 41.5698 14.3409C41.7191 13.643 41.5698 13.0227 41.2714 12.6349C40.8238 12.2472 40.1524 12.0146 39.3317 12.0146ZM39.6302 14.5735C39.4809 15.504 38.8095 15.504 38.1381 15.504H37.6905L37.9889 13.7205C37.9889 13.643 38.0635 13.5655 38.2127 13.5655H38.3619C38.8095 13.5655 39.2571 13.5655 39.481 13.8756C39.6302 13.9532 39.6302 14.1858 39.6302 14.5735Z" fill="#139AD6"/>
<path d="M21.054 12.0146H18.5175C18.3683 12.0146 18.219 12.1697 18.1444 12.3248L17.1 19.1485C17.1 19.3036 17.1746 19.3812 17.3238 19.3812H18.5175C18.6667 19.3812 18.8159 19.2261 18.8905 19.071L19.1889 17.21C19.1889 17.0549 19.3381 16.8998 19.5619 16.8998H20.3825C22.0984 16.8998 23.0683 16.0468 23.2921 14.3409C23.4413 13.643 23.2921 13.0227 22.9937 12.6349C22.546 12.2472 21.9492 12.0146 21.054 12.0146ZM21.3524 14.5735C21.2032 15.504 20.5317 15.504 19.8603 15.504H19.4873L19.7857 13.7205C19.7857 13.643 19.8603 13.5655 20.0095 13.5655H20.1587C20.6063 13.5655 21.054 13.5655 21.2778 13.8756C21.3524 13.9532 21.427 14.1858 21.3524 14.5735ZM28.7381 14.496H27.5444C27.4698 14.496 27.3206 14.5735 27.3206 14.6511L27.246 15.0388L27.1714 14.8837C26.873 14.496 26.3508 14.3409 25.754 14.3409C24.4111 14.3409 23.2175 15.4265 22.9937 16.8998C22.8444 17.6752 23.0683 18.3731 23.4413 18.8384C23.8143 19.3036 24.3365 19.4587 25.0079 19.4587C26.127 19.4587 26.7238 18.7608 26.7238 18.7608L26.6492 19.1485C26.6492 19.3036 26.7238 19.3812 26.873 19.3812H27.9921C28.1413 19.3812 28.2905 19.2261 28.3651 19.071L29.0365 14.7286C28.9619 14.6511 28.8127 14.496 28.7381 14.496ZM27.0222 16.9773C26.873 17.6752 26.3508 18.218 25.6048 18.218C25.2317 18.218 24.9333 18.0629 24.7841 17.9079C24.6349 17.6752 24.5603 17.3651 24.5603 16.9773C24.6349 16.2795 25.2317 15.7367 25.9032 15.7367C26.2762 15.7367 26.5 15.8917 26.7238 16.0468C26.9476 16.2795 27.0222 16.6672 27.0222 16.9773Z" fill="#263B80"/>
<path d="M46.9413 14.496H45.7476C45.673 14.496 45.5238 14.5735 45.5238 14.6511L45.4492 15.0388L45.3746 14.8837C45.0762 14.496 44.554 14.3409 43.9571 14.3409C42.6143 14.3409 41.4206 15.4265 41.1968 16.8998C41.0476 17.6752 41.2714 18.3731 41.6444 18.8384C42.0175 19.3036 42.5397 19.4587 43.2111 19.4587C44.3302 19.4587 44.927 18.7608 44.927 18.7608L44.8524 19.1485C44.8524 19.3036 44.927 19.3812 45.0762 19.3812H46.1952C46.3444 19.3812 46.4937 19.2261 46.5683 19.071L47.2397 14.7286C47.1651 14.6511 47.0905 14.496 46.9413 14.496ZM45.2254 16.9773C45.0762 17.6752 44.554 18.218 43.8079 18.218C43.4349 18.218 43.1365 18.0629 42.9873 17.9079C42.8381 17.6752 42.7635 17.3651 42.7635 16.9773C42.8381 16.2795 43.4349 15.7367 44.1063 15.7367C44.4794 15.7367 44.7032 15.8917 44.927 16.0468C45.2254 16.2795 45.3 16.6672 45.2254 16.9773Z" fill="#139AD6"/>
<path d="M35.2286 14.496H33.9603C33.8111 14.496 33.7365 14.5735 33.6619 14.6511L32.0206 17.2875L31.2746 14.8061C31.2 14.6511 31.1254 14.5735 30.9016 14.5735H29.7079C29.5587 14.5735 29.4841 14.7286 29.4841 14.8837L30.827 18.9935L29.5587 20.8545C29.4841 21.0096 29.5587 21.2422 29.7079 21.2422H30.9016C31.0508 21.2422 31.1254 21.1646 31.2 21.0871L35.3032 14.9612C35.527 14.7286 35.3778 14.496 35.2286 14.496Z" fill="#263B80"/>
<path d="M48.3587 12.2472L47.3143 19.2261C47.3143 19.3812 47.3889 19.4587 47.5381 19.4587H48.5825C48.7317 19.4587 48.881 19.3036 48.9556 19.1485L50 12.3248C50 12.1697 49.9254 12.0921 49.7762 12.0921H48.5825C48.5079 12.0146 48.4333 12.0921 48.3587 12.2472Z" fill="#139AD6"/>
<path d="M11.5794 9.68833C11.0571 9.06798 10.0873 8.75781 8.74444 8.75781H5.01429C4.79048 8.75781 4.56667 8.99044 4.49206 9.22307L3 19.3812C3 19.6138 3.14921 19.7689 3.29841 19.7689H5.61111L6.20794 15.9693V16.1244C6.28254 15.8917 6.50635 15.6591 6.73016 15.6591H7.84921C10.0127 15.6591 11.654 14.7286 12.1762 12.1697V11.9371C12.1016 11.9371 12.1016 11.9371 12.1762 11.9371C12.2508 10.929 12.1016 10.3087 11.5794 9.68833Z" fill="#263B80"/>
<path d="M12.1016 11.9371V12.1697C11.5794 14.8061 9.9381 15.6591 7.7746 15.6591H6.65556C6.43175 15.6591 6.20794 15.8917 6.13333 16.1244L5.3873 20.8545C5.3873 21.0096 5.4619 21.1646 5.68571 21.1646H7.6254C7.84921 21.1646 8.07302 21.0096 8.07302 20.7769V20.6994L8.44603 18.2956V18.1405C8.44603 17.9079 8.66984 17.7528 8.89365 17.7528H9.19206C11.0571 17.7528 12.5492 16.9773 12.9222 14.6511C13.0714 13.7205 12.9968 12.8676 12.5492 12.3248C12.4746 12.1697 12.3254 12.0146 12.1016 11.9371Z" fill="#139AD6"/>
<path d="M11.5794 11.7044C11.5048 11.7044 11.4302 11.6269 11.3556 11.6269C11.281 11.6269 11.2063 11.6269 11.1317 11.5494C10.8333 11.4718 10.5349 11.4718 10.1619 11.4718H7.25238C7.17778 11.4718 7.10317 11.4718 7.02857 11.5494C6.87937 11.6269 6.80476 11.782 6.80476 11.9371L6.20794 15.9693V16.1244C6.28254 15.8917 6.50635 15.6591 6.73016 15.6591H7.84921C10.0127 15.6591 11.654 14.7286 12.1762 12.1697C12.1762 12.0921 12.1762 12.0146 12.2508 11.9371C12.1016 11.8595 12.027 11.782 11.8778 11.782C11.654 11.7044 11.654 11.7044 11.5794 11.7044Z" fill="#232C65"/>
</svg>
