<svg width="53" height="30" viewBox="0 0 53 30" fill="none" xmlns="http://www.w3.org/2000/svg">
<path d="M0 4C0 1.79086 1.79086 0 4 0H49C51.2091 0 53 1.79086 53 4V26C53 28.2091 51.2091 30 49 30H4C1.79086 30 0 28.2091 0 26V4Z" fill="white"/>
<path d="M15.1144 9.72545H12.3131C12.3131 9.26769 12.2585 8.95341 12.1492 8.79627C11.9783 8.56398 11.5206 8.44783 10.769 8.44783C10.0379 8.44783 9.55285 8.51615 9.31371 8.64596C9.07458 8.78261 8.95843 9.07639 8.95843 9.52048C8.95843 9.93041 9.06091 10.1969 9.27272 10.3267C9.42303 10.4223 9.62117 10.4702 9.87397 10.4907L10.4411 10.5316C11.6504 10.6136 12.4088 10.6683 12.7094 10.7024C13.666 10.7981 14.3629 11.0509 14.7933 11.4677C15.1349 11.7888 15.3331 12.2124 15.4014 12.7316C15.4424 13.0459 15.456 13.3943 15.456 13.7906C15.456 14.6924 15.3672 15.3552 15.1964 15.7719C14.8821 16.5371 14.1852 17.0222 13.092 17.2272C12.6343 17.316 11.9374 17.357 10.9945 17.357C9.42303 17.357 8.32985 17.2613 7.7081 17.0769C6.9497 16.8446 6.45094 16.38 6.20497 15.6763C6.06832 15.2868 6 14.6378 6 13.7223H8.80128C8.80128 13.8248 8.80128 13.8999 8.80128 13.9546C8.80128 14.4397 8.93793 14.7539 9.21806 14.8906C9.40937 14.9862 9.64167 15.0409 9.91496 15.0409H10.9467C11.4728 15.0409 11.8075 15.0136 11.951 14.9589C12.2106 14.8564 12.3815 14.6924 12.4634 14.467C12.5044 14.3303 12.5249 14.1459 12.5249 13.9272C12.5249 13.4353 12.3473 13.1347 11.9852 13.0254C11.8485 12.9844 11.2268 12.9229 10.1131 12.8478C9.21806 12.7863 8.59631 12.7248 8.24103 12.6633C7.32549 12.4925 6.71057 12.1372 6.40311 11.6043C6.13665 11.1534 6 10.4565 6 9.53415C6 8.83043 6.07516 8.27019 6.21864 7.8466C6.36212 7.423 6.59442 7.10189 6.92237 6.88326C7.39381 6.54165 8.00189 6.35035 8.73979 6.28886C9.35471 6.2342 10.0311 6.20687 10.7827 6.20687C11.9579 6.20687 12.7982 6.2752 13.297 6.41184C14.52 6.73978 15.1281 7.66213 15.1281 9.16521C15.1486 9.29502 15.1349 9.47949 15.1144 9.72545Z" fill="#10298E"/>
<path d="M27.4516 6.1523H33.0678C33.8399 6.1523 34.4275 6.21379 34.8306 6.3436C35.7529 6.63055 36.3747 7.22495 36.689 8.11997C36.853 8.59139 36.9349 9.2951 36.9349 10.2448C36.9349 11.3789 36.8461 12.1988 36.6617 12.6975C36.2995 13.6814 35.5616 14.2484 34.4411 14.3919C34.3113 14.4124 33.751 14.4329 32.7604 14.4466L32.2616 14.4671H30.4647V17.3639H27.4516V6.1523ZM30.4647 11.864H32.3436C32.938 11.8435 33.3001 11.7957 33.4299 11.7274C33.6076 11.6317 33.7306 11.4336 33.792 11.1398C33.833 10.9417 33.8467 10.6547 33.8467 10.2653C33.8467 9.79385 33.8057 9.43858 33.7305 9.21312C33.6212 8.892 33.3616 8.69387 32.9517 8.62555C32.8697 8.61188 32.6784 8.60505 32.3641 8.60505H30.4578L30.4647 11.864Z" fill="#10298E"/>
<path d="M43.372 15.4167H39.3409L38.8011 17.3502H35.6787L39.0471 6.14539H43.5975L47 17.3502H43.9459L43.372 15.4167ZM42.7776 13.2372L41.3633 8.37951L39.99 13.2372H42.7776Z" fill="#10298E"/>
<path d="M23.2897 7.73041C24.5332 7.73041 25.64 8.30431 26.3711 9.19933L27.0202 7.80556C26.0022 6.84223 24.622 6.25466 23.0916 6.25466C20.7139 6.25466 18.6847 7.68942 17.8511 9.71857H16.5803L15.8287 11.3241H17.4548C17.4412 11.4744 17.4343 11.6248 17.4343 11.7751C17.4343 11.9595 17.4412 12.1372 17.4617 12.3216H16.6418L15.8902 13.9272H17.8784C18.7325 15.9085 20.7412 17.2955 23.0779 17.2955C24.2531 17.2955 25.3462 16.9402 26.255 16.339V14.3713C25.5239 15.2048 24.458 15.7241 23.2692 15.7241C21.8822 15.7241 20.6592 15.0067 19.9418 13.9204H24.0959L24.8475 12.3148H19.3337C19.3064 12.1235 19.2927 11.9254 19.2927 11.7272C19.2927 11.5906 19.2996 11.4608 19.3132 11.3241H25.3121L26.0636 9.71857H19.8325C20.5362 8.52977 21.8207 7.73041 23.2897 7.73041Z" fill="#FFBE00"/>
<path d="M23.2889 7.77828C24.4777 7.77828 25.5846 8.31119 26.3362 9.23353L26.384 9.29502L26.4181 9.2267L27.0672 7.83293L27.0809 7.79877L27.0536 7.77828C25.9809 6.76711 24.5734 6.20687 23.0908 6.20687C21.9293 6.20687 20.8156 6.54848 19.8659 7.19071C18.9367 7.81244 18.2261 8.68696 17.8025 9.70495L17.8435 9.67762H16.5385L16.5248 9.70495L15.7733 11.3105L15.7391 11.3788H17.4404L17.3925 11.3242C17.3789 11.495 17.372 11.6385 17.372 11.7751C17.372 11.9527 17.3789 12.1372 17.3994 12.3217L17.4472 12.267H16.5932L16.5795 12.2943L15.8348 13.8862L15.8006 13.9546H17.864L17.823 13.9272C18.718 15.9906 20.7746 17.3297 23.0703 17.3297C24.2181 17.3297 25.325 16.9949 26.2747 16.3663L26.2952 16.3527V14.2279L26.2132 14.3235C25.4684 15.1775 24.3889 15.6626 23.2616 15.6626C21.9361 15.6626 20.7063 14.9999 19.9752 13.8862L19.9342 13.9614H24.1225L24.1361 13.9341L24.8877 12.3285L24.9218 12.2602H19.3329L19.3808 12.3012C19.3534 12.1099 19.3398 11.9117 19.3398 11.7136C19.3398 11.5838 19.3466 11.4472 19.3603 11.3173L19.3124 11.3583H25.3523L25.366 11.331L26.1175 9.72545L26.1517 9.65713H19.8454L19.8864 9.73228C20.5901 8.52982 21.8951 7.77828 23.2889 7.77828ZM26.0765 9.76644L26.0355 9.69812L25.2908 11.3037L25.3318 11.2764H19.292L19.2851 11.3173C19.2715 11.454 19.2646 11.5906 19.2646 11.7273C19.2646 11.9254 19.2783 12.1235 19.3056 12.3285L19.3124 12.3695H24.874L24.833 12.3012L24.0815 13.9067L24.1225 13.8794H19.8795L19.9274 13.9546C20.6789 15.0955 21.9293 15.7788 23.2957 15.7788C24.4504 15.7788 25.5504 15.28 26.3157 14.4055L26.2337 14.3713V16.339L26.2542 16.298C25.325 16.9197 24.2318 17.2477 23.1044 17.2477C20.8497 17.2477 18.8273 15.9359 17.946 13.9067L17.9323 13.8794H15.9099L15.9509 13.9477L16.6956 12.3422L16.6546 12.3695H17.5292L17.5224 12.3148C17.5019 12.1304 17.495 11.9527 17.495 11.7751C17.495 11.6385 17.5019 11.495 17.5155 11.331V11.2764H15.8348L15.8758 11.3447L16.6273 9.73911L16.5863 9.76644H17.8913L17.905 9.73911C18.3149 8.73478 19.0187 7.88076 19.9274 7.26586C20.8634 6.6373 21.9566 6.30252 23.0976 6.30252C24.5597 6.30252 25.9399 6.8491 26.9921 7.83977L26.9784 7.78511L26.3293 9.17887L26.4113 9.16521C25.6392 8.22237 24.5051 7.67579 23.2889 7.67579C21.8609 7.67579 20.5286 8.44783 19.8112 9.69129L19.7702 9.76644H26.0765Z" fill="#10298E"/>
<path d="M6.51044 18.213H7.48064V22.9135H10.2956V23.747H6.51044V18.213Z" fill="black"/>
<path d="M14.531 22.8503C14.531 23.0689 14.5788 23.1509 14.7359 23.1509C14.7906 23.1509 14.8589 23.1509 14.9546 23.1372V23.7521C14.8248 23.8 14.5446 23.8546 14.3943 23.8546C14.039 23.8546 13.7794 23.7316 13.7111 23.3627C13.3626 23.7043 12.7955 23.8546 12.3241 23.8546C11.6067 23.8546 10.9508 23.4652 10.9508 22.6795C10.9508 21.6752 11.7502 21.518 12.4949 21.4292C13.1303 21.3131 13.6974 21.3814 13.6974 20.8621C13.6974 20.4044 13.226 20.3156 12.8639 20.3156C12.3651 20.3156 12.0167 20.5205 11.9757 20.9509H11.0943C11.1558 19.9193 12.0303 19.6187 12.9185 19.6187C13.7043 19.6187 14.5241 19.9398 14.5241 20.7801L14.531 22.8503ZM13.6496 21.7366C13.3763 21.9143 12.9527 21.9075 12.5632 21.9758C12.1875 22.0373 11.8458 22.1807 11.8458 22.6385C11.8458 23.0348 12.3514 23.1509 12.6589 23.1509C13.0483 23.1509 13.6496 22.9459 13.6496 22.3925V21.7366Z" fill="black"/>
<path d="M16.4939 22.4539C16.5417 22.9663 16.9312 23.1508 17.4026 23.1508C17.7374 23.1508 18.3182 23.0824 18.2908 22.6247C18.2703 22.1601 17.6281 22.1054 16.979 21.962C16.3299 21.8253 15.6945 21.5862 15.6945 20.7732C15.6945 19.8986 16.6374 19.6253 17.3685 19.6253C18.1883 19.6253 18.9331 19.967 19.0424 20.8551H18.12C18.0449 20.4384 17.6964 20.3222 17.307 20.3222C17.0542 20.3222 16.5759 20.3837 16.5759 20.7322C16.5759 21.1694 17.225 21.2309 17.8809 21.3744C18.5231 21.5247 19.179 21.7502 19.179 22.5495C19.179 23.506 18.2157 23.8545 17.3889 23.8545C16.3846 23.8545 15.633 23.4035 15.6125 22.4607H16.4939V22.4539Z" fill="black"/>
<path d="M19.7881 19.7347H20.4508V18.5323H21.339V19.7347H22.1384V20.3906H21.339V22.5359C21.339 22.898 21.3732 23.0825 21.7626 23.0825C21.8856 23.0825 22.0086 23.0825 22.1384 23.0483V23.7315C21.9471 23.7452 21.7626 23.7794 21.5645 23.7794C20.6421 23.7794 20.4713 23.4241 20.4576 22.7545V20.3906H19.7949L19.7881 19.7347Z" fill="black"/>
<path d="M23.7849 22.4539C23.8327 22.9663 24.2222 23.1508 24.6936 23.1508C25.0284 23.1508 25.6091 23.0824 25.5818 22.6247C25.5613 22.1601 24.9191 22.1054 24.27 21.962C23.6209 21.8253 22.9855 21.5862 22.9855 20.7732C22.9855 19.8986 23.9284 19.6253 24.6594 19.6253C25.4793 19.6253 26.2241 19.967 26.3334 20.8551H25.411C25.3358 20.4384 24.9874 20.3222 24.5979 20.3222C24.3451 20.3222 23.8669 20.3837 23.8669 20.7322C23.8669 21.1694 24.516 21.2309 25.1719 21.3744C25.8141 21.5247 26.47 21.7502 26.47 22.5495C26.47 23.506 25.5067 23.8545 24.6799 23.8545C23.6756 23.8545 22.9172 23.4035 22.9035 22.4607H23.7849V22.4539Z" fill="black"/>
<path d="M30.1838 21.0739C30.1155 20.582 29.7602 20.3224 29.2683 20.3224C28.8105 20.3224 28.1682 20.5615 28.1682 21.7776C28.1682 22.4404 28.462 23.1509 29.2273 23.1509C29.7397 23.1509 30.095 22.8093 30.1838 22.2354H31.072C30.908 23.2739 30.2658 23.8478 29.2341 23.8478C27.9769 23.8478 27.2869 22.9596 27.2869 21.7776C27.2869 20.5683 27.9496 19.6187 29.2614 19.6187C30.1906 19.6187 30.9832 20.0833 31.0652 21.0671L30.1838 21.0739Z" fill="black"/>
<path d="M32.1366 18.2111H33.0248V20.2676H33.0384C33.2571 19.9055 33.7148 19.6322 34.2409 19.6322C35.1087 19.6322 35.6621 20.0968 35.6621 20.9986V23.752H34.7739V21.2309C34.7602 20.6024 34.5074 20.3291 33.9881 20.3291C33.4006 20.3291 33.0179 20.7937 33.0179 21.3812V23.7452H32.1297L32.1366 18.2111Z" fill="black"/>
<path d="M36.9306 19.7347H37.7642V20.5135H37.7779C37.8803 20.0899 38.4064 19.6253 38.953 19.6253C39.158 19.6253 39.2058 19.639 39.2878 19.6458V20.4999C39.1648 20.4862 39.035 20.4589 38.912 20.4589C38.3039 20.4589 37.8257 20.9508 37.8257 21.8321V23.7383H36.9375V19.7347H36.9306Z" fill="black"/>
<path d="M40.0232 18.2111H40.9114V19.0446H40.0232V18.2111ZM40.0232 19.7347H40.9114V23.7452H40.0232V19.7347Z" fill="black"/>
<path d="M41.8166 19.7347H42.4793V19.3999C42.4793 18.3751 43.0122 18.2043 43.5861 18.2043C43.8663 18.2043 44.0644 18.218 44.2079 18.259V18.949C44.0917 18.9149 43.9756 18.9012 43.798 18.9012C43.5588 18.9012 43.3607 18.9832 43.3607 19.318V19.7279H44.1122V20.3838H43.3607V23.7315H42.4725V20.3838H41.8097L41.8166 19.7347Z" fill="black"/>
<path d="M44.5896 19.7347H45.2523V18.5323H46.1406V19.7347H46.9399V20.3906H46.1406V22.5359C46.1406 22.898 46.1747 23.0825 46.5642 23.0825C46.6871 23.0825 46.8101 23.0825 46.9399 23.0483V23.7315C46.7486 23.7452 46.5642 23.7794 46.366 23.7794C45.4436 23.7794 45.2728 23.4241 45.2592 22.7545V20.3906H44.5964L44.5896 19.7347Z" fill="black"/>
</svg>
