<svg width="53" height="30" viewBox="0 0 53 30" fill="none" xmlns="http://www.w3.org/2000/svg">
<g clip-path="url(#clip0_5657_13835)">
<path d="M49.6192 -2.03772H3.38081C1.51344 -2.03772 0 -0.524276 0 1.34309V4.95357V6.13135V23.8687V25.0465V28.6569C0 30.5243 1.51344 32.0377 3.38081 32.0377H49.6192C51.4866 32.0377 53 30.5243 53 28.6569V25.0465V23.8687V6.13135V4.95357V1.34309C53 -0.524276 51.4866 -2.03772 49.6192 -2.03772Z" fill="#016FD0"/>
<path d="M2.35556 28.6569V25.0465V23.8687V6.13135V4.95357V1.34309C2.35556 -0.524276 3.869 -2.03772 5.73637 -2.03772H3.38081C1.51344 -2.03772 0 -0.524276 0 1.34309V4.95357V25.0465V28.6569C0 30.5243 1.51344 32.0377 3.38081 32.0377H5.73637C3.869 32.0377 2.35556 30.5243 2.35556 28.6569Z" fill="#0064BC"/>
<path d="M10.3145 9.77209L5.5957 20.2149H11.2449L11.9451 18.5501H13.5457L14.2459 20.2149H20.464V18.944L21.0181 20.2149H24.2346L24.7888 18.9175V20.2149H37.7202L39.2925 18.5931L40.7647 20.2149L47.4068 20.2284L42.6733 15.0232L47.4068 9.77268H40.8678L39.3373 11.3644L37.911 9.77268H23.8436L22.6358 12.468L21.3997 9.77268H15.7623V10.9999L15.1351 9.77268L10.3145 9.77209ZM11.4074 11.2549H14.1611L17.291 18.3357V11.2549H20.3073L22.7247 16.3317L24.9525 11.2549H27.954V18.7479H26.1279L26.1132 12.8761L23.4508 18.7479H21.8172L19.1396 12.8761V18.7479H15.3824L14.6699 17.0678H10.8221L10.1113 18.7462H8.09848L11.4074 11.2549ZM29.6253 11.2549H37.0512L39.3225 13.7082L41.6669 11.2549H43.9383L40.4874 15.0209L43.9383 18.7432H41.5639L39.2925 16.2617L36.9364 18.7432H29.6253V11.2549ZM12.7472 12.5228L11.4793 15.5155H14.0133L12.7472 12.5228ZM31.4591 12.8066V14.1746H35.5101V15.6993H31.4591V17.1927H36.003L38.1141 14.9932L36.0925 12.8055H31.4591V12.8066Z" fill="white"/>
</g>
<defs>
<clipPath id="clip0_5657_13835">
<path d="M0 4C0 1.79086 1.79086 0 4 0H49C51.2091 0 53 1.79086 53 4V26C53 28.2091 51.2091 30 49 30H4C1.79086 30 0 28.2091 0 26V4Z" fill="white"/>
</clipPath>
</defs>
</svg>
