<svg width="53" height="30" viewBox="0 0 53 30" fill="none" xmlns="http://www.w3.org/2000/svg">
<path d="M0 4C0 1.79086 1.79086 0 4 0H49C51.2091 0 53 1.79086 53 4V26C53 28.2091 51.2091 30 49 30H4C1.79086 30 0 28.2091 0 26V4Z" fill="white"/>
<path d="M5 8.51076C5.57766 8.21358 6.23799 8.3335 6.85818 8.32204C8.27869 8.35931 9.70254 8.28764 11.1231 8.3507C11.7633 8.34784 12.3123 8.87962 12.4007 9.49979C12.8465 11.6608 13.2555 13.8305 13.6927 15.9972C12.9693 13.4587 11.06 11.3866 8.81574 10.0688C7.62983 9.35693 6.30631 8.94268 5 8.51076Z" fill="#F4A929"/>
<path d="M17.3654 8.32808C18.5977 8.34241 19.8266 8.33668 21.056 8.32808C19.1864 12.7959 17.4428 17.3153 15.5331 21.7659C14.3323 21.7286 13.1316 21.7458 11.9314 21.7458C10.8678 17.8609 9.87587 13.9564 8.82136 10.0687C11.0656 11.3864 12.9749 13.459 13.6983 15.9971C13.8068 16.4887 13.8842 16.9918 13.9783 17.4892C15.0983 14.4342 16.2335 11.3811 17.3654 8.32808Z" fill="#1B4DA2"/>
<path d="M22.4322 8.32223C23.5899 8.33083 24.7476 8.33083 25.9053 8.32223C25.1934 12.7986 24.4447 17.2693 23.75 21.7486C22.598 21.7514 21.446 21.7514 20.2912 21.7486C20.9543 17.2669 21.7351 12.802 22.4322 8.32223Z" fill="#1B4DA2"/>
<path d="M29.196 9.16532C31.2716 7.80171 33.984 7.84184 36.2799 8.59627C36.1743 9.58816 36.0085 10.5715 35.837 11.5519C34.6162 10.9661 33.1928 10.7057 31.8664 11.0459C31.2405 11.1945 30.6227 11.9718 31.143 12.5552C32.2124 13.6498 33.8957 13.8988 34.9019 15.0909C36.0682 16.2313 36.0252 18.1525 35.2306 19.4875C34.3902 20.8969 32.7723 21.6342 31.197 21.8458C29.4162 22.0317 27.5609 21.9204 25.8915 21.2314C26.0688 20.2309 26.2173 19.2247 26.3975 18.2242C27.8409 18.9705 29.5161 19.3446 31.1258 18.9872C31.672 18.8042 32.2348 18.3556 32.1865 17.7153C32.0064 16.9523 31.209 16.6265 30.5888 16.2805C29.3852 15.689 28.0903 14.9628 27.5499 13.6623C26.8777 12.0182 27.7664 10.0946 29.196 9.16532Z" fill="#1B4DA2"/>
<path d="M45.1905 8.33943C44.1269 8.3595 43.0581 8.29643 41.9945 8.37096C41.2711 8.40823 40.8138 9.08 40.5821 9.69731C38.9098 13.7222 37.2174 17.7385 35.5422 21.7605C36.7544 21.7576 37.9661 21.7577 39.1783 21.7577C39.4325 21.0859 39.6786 20.4084 39.916 19.7309C41.3968 19.7395 42.8775 19.7366 44.361 19.7366C44.4982 20.4141 44.641 21.0887 44.7925 21.7605C45.8618 21.7576 46.9307 21.7577 48 21.7548C47.063 17.2841 46.1423 12.8101 45.1905 8.33943ZM40.9252 16.9692C41.5712 15.3085 42.1001 13.5989 42.8235 11.9697C43.038 13.6563 43.458 15.3085 43.8039 16.9721C42.8435 16.9721 41.886 16.9721 40.9252 16.9692Z" fill="#1B4DA2"/>
</svg>
