<svg width="53" height="30" viewBox="0 0 53 30" fill="none" xmlns="http://www.w3.org/2000/svg">
<path d="M0 4C0 1.79086 1.79086 0 4 0H49C51.2091 0 53 1.79086 53 4V26C53 28.2091 51.2091 30 49 30H4C1.79086 30 0 28.2091 0 26V4Z" fill="#EA88B2"/>
<path d="M44.9796 16.42C44.9796 15.4546 44.1628 14.6734 43.1547 14.6734C42.147 14.6734 41.3297 15.456 41.3297 16.42C41.3297 17.3839 42.1479 18.1652 43.1556 18.1652C44.1637 18.1652 44.9796 17.3839 44.9796 16.42ZM44.9864 13.0252H47V19.8138H44.9864V19.3797C44.3992 19.7847 43.7027 20.0015 42.9897 20.0011C41.0295 20.0011 39.441 18.398 39.441 16.42C39.441 14.4419 41.0299 12.8388 42.9897 12.8388C43.7309 12.8388 44.4175 13.0675 44.9864 13.4602V13.0252ZM28.8698 13.9098V13.0265H26.808V19.8138H28.8748V16.6441C28.8748 15.5744 30.0228 15.0004 30.8196 15.0004H30.8433V13.0261C30.0246 13.0261 29.2739 13.3796 28.8698 13.9098ZM23.733 16.42C23.733 15.4546 22.9161 14.6734 21.908 14.6734C20.8999 14.6734 20.083 15.456 20.083 16.42C20.083 17.3839 20.9012 18.1652 21.9089 18.1652C22.9171 18.1652 23.733 17.3839 23.733 16.42ZM23.7402 13.0252H25.7547V19.8138H23.7402V19.3797C23.1713 19.771 22.4847 20.0011 21.7435 20.0011C19.7833 20.0011 18.1948 18.398 18.1948 16.42C18.1948 14.4419 19.7837 12.8388 21.7435 12.8388C22.4847 12.8388 23.1713 13.0675 23.7402 13.4602V13.0252ZM35.8621 12.8438C35.0581 12.8438 34.2968 13.0953 33.7871 13.79V13.0265H31.7822V19.8138H33.8121V16.2473C33.8121 15.2155 34.4973 14.7093 35.3241 14.7093C36.2088 14.7093 36.7186 15.2428 36.7186 16.2332V19.8143H38.7294V15.4979C38.7294 13.918 37.4844 12.8438 35.8621 12.8438ZM15.261 19.8134H17.3693V10.0016H15.261V19.8134ZM6 19.8161H8.23268V9.9989H6.00137L6 19.8161ZM13.8096 9.9989C13.8096 12.1236 12.9891 14.1016 11.5259 15.5708L14.6114 19.8157H11.8539L8.50191 15.2032L9.36747 14.5485C10.7965 13.4739 11.6325 11.7865 11.6229 9.9989H13.8096Z" fill="black"/>
</svg>
