<svg width="53" height="30" viewBox="0 0 53 30" fill="none" xmlns="http://www.w3.org/2000/svg">
<path d="M0 4C0 1.79086 1.79086 0 4 0H49C51.2091 0 53 1.79086 53 4V26C53 28.2091 51.2091 30 49 30H4C1.79086 30 0 28.2091 0 26V4Z" fill="white"/>
<path d="M19.0549 6.00452C18.1886 6.00452 17.2795 6.40648 16.5736 7.03321L16.4944 6.49545C16.4742 6.36002 16.3658 6.24548 16.2073 6.24548H15.4534C15.3155 6.24548 15.2031 6.35822 15.2031 6.49545C15.2031 9.9165 15.2031 13.3379 15.2031 16.759C15.2031 16.8965 15.3159 17.0089 15.4534 17.0089H16.4385C16.5761 17.0089 16.6885 16.8962 16.6885 16.759V13.2147C17.3134 13.7719 18.126 14.0925 18.9947 14.0925C21.0585 14.0925 22.2788 12.3056 22.2788 10.0818C22.2788 8.00355 21.481 6.00452 19.0549 6.00452ZM20.0407 12.3668C19.6567 12.7454 19.2281 12.8484 18.5827 12.8484C18.0082 12.8484 17.2525 12.5487 16.6881 12.1316V7.93079C17.2759 7.47948 18.0255 7.23527 18.6504 7.23527C20.282 7.23527 20.7264 8.51826 20.7264 9.98745C20.7358 10.978 20.5535 11.8611 20.0407 12.3668Z" fill="black"/>
<path d="M29.496 13.6554C29.496 13.793 29.3832 13.9054 29.2449 13.9054H28.5094C28.3506 13.9054 28.2422 13.7905 28.2217 13.6554L28.1478 13.1547C27.81 13.4407 27.3951 13.6921 26.9452 13.8672C26.0804 14.2032 25.0831 14.2587 24.2381 13.7397C23.6269 13.3647 23.3027 12.6314 23.3027 11.8746C23.3027 11.2893 23.4832 10.7091 23.883 10.288C24.4164 9.71244 25.1901 9.42969 26.1236 9.42969C26.6877 9.42969 27.4948 9.49597 28.0823 9.68795V8.68051C28.0823 7.65614 27.6511 7.21311 26.5141 7.21311C25.645 7.21311 24.9801 7.34421 24.0551 7.632C23.9071 7.63705 23.8203 7.52431 23.8203 7.38672V6.81222C23.8203 6.67427 23.9381 6.541 24.0656 6.50066C24.7262 6.21251 25.6623 6.03314 26.6571 6C27.9541 6 29.4956 6.29247 29.4956 8.28754V13.6554H29.496ZM28.0826 12.1844V10.6644C27.5892 10.5293 26.7723 10.4735 26.4564 10.4735C25.9572 10.4735 25.4105 10.5917 25.1249 10.8989C24.9116 11.1244 24.8151 11.4478 24.8151 11.7605C24.8151 12.1649 24.9549 12.5705 25.2819 12.7711C25.6615 13.029 26.2504 12.9977 26.8037 12.8403C27.3353 12.6897 27.8348 12.4225 28.0826 12.1844Z" fill="black"/>
<path d="M30.8836 16.7458C30.8836 16.5592 30.8836 16.3917 30.8836 16.2051C30.8836 16.0513 30.9592 15.9451 31.1195 15.9548C31.4192 15.9973 31.8427 16.0398 32.1438 15.9779C32.5368 15.8961 32.8184 15.6177 32.9852 15.2359C33.22 14.6985 33.3756 14.2652 33.474 13.981L30.491 6.59069C30.4406 6.46535 30.4258 6.23267 30.6761 6.23267H31.7188C31.9176 6.23267 31.9987 6.35909 32.0433 6.48264L34.2062 12.4855L36.2707 6.48264C36.3129 6.35981 36.3975 6.23267 36.5945 6.23267H37.5778C37.8267 6.23267 37.8127 6.46499 37.763 6.59069L34.8037 14.2115C34.4209 15.2258 33.9109 16.8416 32.7619 17.1222C32.186 17.2727 31.4591 17.2183 31.0323 17.0397C30.9246 16.9857 30.8836 16.8412 30.8836 16.7458Z" fill="black"/>
<path d="M40.5906 16.4377C39.5821 16.4518 38.3913 16.6776 37.488 17.3115C37.2092 17.5049 37.2582 17.7736 37.5683 17.738C38.584 17.6159 40.8449 17.3418 41.249 17.8583C41.6542 18.3748 40.8009 20.5057 40.4238 21.4587C40.3071 21.7429 40.5538 21.8607 40.8142 21.6446C42.5042 20.229 42.9432 17.2615 42.5975 16.8346C42.4242 16.6211 41.5991 16.4237 40.5906 16.4377Z" fill="#F79C34"/>
<path d="M10.5241 17.5184C10.2886 17.5508 10.187 17.8494 10.4333 18.0861C14.6658 22.0561 20.259 24 26.4688 24C30.8979 24 36.0401 22.5549 39.5896 19.8315C40.1764 19.3788 39.6764 18.7002 39.0746 18.9682C35.095 20.7241 30.7722 21.5705 26.838 21.5705C21.0071 21.5705 15.3627 20.3531 10.796 17.5879C10.6966 17.5274 10.6026 17.5076 10.5241 17.5184Z" fill="#F79C34"/>
</svg>
