<svg width="53" height="30" viewBox="0 0 53 30" fill="none" xmlns="http://www.w3.org/2000/svg">
<path d="M0 4C0 1.79086 1.79086 0 4 0H49C51.2091 0 53 1.79086 53 4V26C53 28.2091 51.2091 30 49 30H4C1.79086 30 0 28.2091 0 26V4Z" fill="white"/>
<path d="M25.5409 14.8261V18.8935H24.2288V8.83412H27.6401C28.4712 8.83412 29.2583 9.14018 29.8708 9.70874C30.4833 10.2337 30.7893 11.0208 30.7893 11.8519C30.7893 12.683 30.4833 13.4265 29.8708 13.9951C29.2583 14.5636 28.5151 14.8697 27.6401 14.8697L25.5409 14.8261ZM25.5409 10.0587V13.5576H27.7276C28.2087 13.5576 28.6897 13.3826 28.9958 13.0326C29.6954 12.3765 29.6954 11.283 29.0393 10.6269L28.9958 10.5833C28.6458 10.2333 28.2087 10.0148 27.7276 10.0583L25.5409 10.0587Z" fill="black"/>
<path d="M33.8067 11.8085C34.7688 11.8085 35.5124 12.071 36.0809 12.5956C36.6495 13.1206 36.912 13.8202 36.912 14.6948V18.8936H35.6874V17.9315H35.6438C35.1188 18.7186 34.3757 19.1126 33.5007 19.1126C32.7571 19.1126 32.1011 18.894 31.5765 18.4565C31.0954 18.019 30.7894 17.4069 30.7894 16.7509C30.7894 16.0512 31.0519 15.4827 31.5765 15.0452C32.1015 14.6077 32.8446 14.4327 33.7196 14.4327C34.5067 14.4327 35.1192 14.5637 35.6003 14.8702V14.5641C35.6003 14.1266 35.4253 13.6895 35.0753 13.427C34.7253 13.121 34.2882 12.946 33.8071 12.946C33.0636 12.946 32.495 13.252 32.1015 13.8645L30.9644 13.1649C31.6636 12.246 32.5821 11.8085 33.8067 11.8085ZM32.1446 16.7944C32.1446 17.1444 32.3196 17.4505 32.5821 17.6255C32.8882 17.844 33.2382 17.9755 33.5882 17.9755C34.1132 17.9755 34.6378 17.7569 35.0313 17.363C35.4688 16.9694 35.6874 16.4884 35.6874 15.9634C35.2938 15.6573 34.7253 15.4823 33.9817 15.4823C33.4567 15.4823 33.0196 15.6134 32.6696 15.8759C32.3196 16.0948 32.1446 16.4009 32.1446 16.7944Z" fill="black"/>
<path d="M44 12.0273L39.6701 21.9556H38.358L39.9762 18.5004L37.1334 12.0712H38.533L40.5887 17.0136H40.6322L42.644 12.0712H44V12.0273Z" fill="black"/>
<path d="M20.3388 13.9518C20.3388 13.5582 20.2952 13.1647 20.2513 12.7707H14.7839V15.0014H17.8892C17.7581 15.701 17.3642 16.357 16.7521 16.751V18.1942H18.6327C19.7263 17.1881 20.3388 15.701 20.3388 13.9518Z" fill="#4285F4"/>
<path d="M14.7853 19.5936C16.3599 19.5936 17.672 19.0686 18.6341 18.194L16.7534 16.7508C16.2284 17.1008 15.5724 17.3194 14.7853 17.3194C13.2981 17.3194 11.986 16.3133 11.5489 14.9137H9.62472V16.4008C10.6304 18.369 12.5985 19.5936 14.7853 19.5936Z" fill="#34A853"/>
<path d="M11.5475 14.9136C11.285 14.214 11.285 13.4265 11.5475 12.6829V11.1958H9.62329C8.79224 12.814 8.79224 14.7386 9.62329 16.4003L11.5475 14.9136Z" fill="#FBBC04"/>
<path d="M14.7816 10.3214C15.6126 10.3214 16.3997 10.6274 17.0122 11.196L18.6743 9.53388C17.6247 8.57177 16.2251 8.00321 14.8255 8.04677C12.6388 8.04677 10.6267 9.27138 9.6646 11.2395L11.5888 12.7267C11.9828 11.3274 13.2949 10.3214 14.7816 10.3214Z" fill="#EA4335"/>
</svg>
