<svg width="53" height="30" viewBox="0 0 53 30" fill="none" xmlns="http://www.w3.org/2000/svg">
<path d="M0 4C0 1.79086 1.79086 0 4 0H49C51.2091 0 53 1.79086 53 4V26C53 28.2091 51.2091 30 49 30H4C1.79086 30 0 28.2091 0 26V4Z" fill="#F7CE46"/>
<path d="M10.6158 10.6532L9.04988 13.324H17.584C18.0128 13.324 18.0087 13.5237 17.7984 13.8822C17.584 14.2458 17.2268 14.8809 17.0103 15.2496C16.9001 15.4366 16.6959 15.7797 17.3595 15.7797H20.8507L21.8818 14.0128C22.5228 12.922 21.9389 10.6532 19.6461 10.6532H10.6158ZM25.324 10.6532L22.3125 15.7797H33.3171L36.3245 10.6532H31.8288L30.1076 13.5878H28.0966L29.8238 10.6532H25.326H25.324ZM37.7884 10.6532L34.779 15.7797H39.5442L42.5495 10.6532H37.7904H37.7884ZM11.5632 13.9821L8.419 19.3442H16.0834C18.6151 19.3442 20.0279 17.183 20.4628 16.4352H15.2361C14.5705 16.4352 14.7747 16.0947 14.885 15.9052C15.1034 15.539 15.4628 14.9116 15.6771 14.548C15.8895 14.1895 15.8956 13.9847 15.4628 13.9847H11.5632V13.9821ZM2 16.4378V17.0575H8.93758L9.29692 16.4378H2ZM21.9308 16.4378L20.2239 19.3467H24.7217L26.4285 16.4378H21.9308ZM28.4335 16.4378L26.7266 19.3467H31.2244L32.9312 16.4378H28.4335ZM34.391 16.4378C34.391 16.4378 34.0664 17.0012 33.9051 17.2726C33.3416 18.2303 33.8378 19.3467 35.6814 19.3467H42.9048L44.6075 16.4378H34.391ZM45.4324 16.4378L45.071 17.0575H51V16.4378H45.4324ZM2 17.585V18.1996H8.26383L8.62725 17.585H2ZM44.7586 17.585L44.4013 18.1996H51V17.585H44.7586ZM2 18.7296V19.3442H7.59417L7.9535 18.7296H2ZM44.089 18.7296L43.7276 19.3442H51V18.7296H44.089Z" fill="#C90000"/>
</svg>
