<svg width="53" height="30" viewBox="0 0 53 30" fill="none" xmlns="http://www.w3.org/2000/svg">
<path d="M0 4C0 1.79086 1.79086 0 4 0H49C51.2091 0 53 1.79086 53 4V26C53 28.2091 51.2091 30 49 30H4C1.79086 30 0 28.2091 0 26V4Z" fill="white"/>
<path d="M14.1376 9.06267C13.6808 9.60302 12.95 10.0295 12.2195 9.96845C12.1282 9.2376 12.4858 8.46128 12.9045 7.98198C13.3613 7.42648 14.1605 7.03031 14.8074 7C14.8836 7.76116 14.5866 8.50717 14.1376 9.06267ZM14.7996 10.1135C13.7414 10.0524 12.8357 10.7149 12.3334 10.7149C11.8234 10.7149 11.0548 10.1438 10.2175 10.1594C9.12899 10.1745 8.1167 10.7911 7.5612 11.7731C6.41945 13.737 7.26418 16.6444 8.36782 18.243C8.90817 19.0344 9.55546 19.9021 10.4075 19.8718C11.2142 19.8415 11.5341 19.3466 12.5083 19.3466C13.4903 19.3466 13.7717 19.8718 14.6243 19.8566C15.5071 19.8415 16.063 19.0652 16.6034 18.2733C17.2199 17.3753 17.471 16.4998 17.4862 16.4539C17.471 16.4388 15.7812 15.7919 15.766 13.8431C15.7508 12.2143 17.0983 11.438 17.1589 11.3921C16.3981 10.2655 15.2105 10.1438 14.7996 10.1135ZM20.9119 7.90578V19.7722H22.7537V15.7153H25.3035C27.6329 15.7153 29.2691 14.1167 29.2691 11.803C29.2691 9.48915 27.6632 7.90578 25.3641 7.90578H20.9119ZM22.7537 9.45884H24.8774C26.476 9.45884 27.3891 10.3114 27.3891 11.8107C27.3891 13.3101 26.4755 14.1704 24.8697 14.1704H22.7537V9.45884ZM32.6337 19.864C33.7906 19.864 34.8639 19.2778 35.351 18.3495H35.3891V19.7727H37.0942V13.8661C37.0942 12.1532 35.7242 11.0496 33.6157 11.0496C31.6595 11.0496 30.2134 12.1684 30.1601 13.7059H31.8193C31.9561 12.975 32.6337 12.4957 33.5624 12.4957C34.689 12.4957 35.3207 13.0209 35.3207 13.9877V14.6424L33.0221 14.7792C30.8832 14.9087 29.7263 15.7841 29.7263 17.3064C29.7263 18.8439 30.9213 19.864 32.6337 19.864ZM33.1286 18.4556C32.1466 18.4556 31.5227 17.9836 31.5227 17.2606C31.5227 16.5145 32.1241 16.0807 33.2732 16.0123L35.3207 15.8828V16.5526C35.3207 17.6641 34.3768 18.4556 33.1286 18.4556ZM39.3703 23C41.1667 23 42.0114 22.3151 42.7501 20.2368L45.9848 11.1639H44.1122L41.943 18.1741H41.9049L39.7357 11.1639H37.8099L40.9307 19.803L40.7632 20.3282C40.4817 21.2188 40.0249 21.5613 39.2105 21.5613C39.0659 21.5613 38.7845 21.5461 38.6702 21.5309V22.9541C38.7767 22.9849 39.233 23 39.3703 23Z" fill="black"/>
</svg>
