<svg width="25" height="19" viewBox="0 0 25 19" fill="none" xmlns="http://www.w3.org/2000/svg">
<path d="M21.9602 0.379546C21.9602 0.379546 18.9432 0 12.4636 0C6.19432 0 3.03864 0.379546 3.03864 0.379546C2.23264 0.379847 1.45975 0.700241 0.889927 1.27028C0.320105 1.84031 1.56184e-07 2.61332 2.12504e-07 3.41932V14.8216C-0.000149045 15.2208 0.0783291 15.6161 0.230954 15.9849C0.383579 16.3538 0.607362 16.689 0.889525 16.9714C1.17169 17.2537 1.50671 17.4778 1.87545 17.6307C2.2442 17.7836 2.63945 17.8624 3.03864 17.8625C3.03864 17.8625 5.97273 18.2398 12.4636 18.2398C18.9511 18.2398 21.9602 17.8625 21.9602 17.8625C22.3596 17.8628 22.7551 17.7843 23.1241 17.6316C23.4931 17.4789 23.8284 17.2549 24.1107 16.9724C24.3931 16.69 24.617 16.3546 24.7695 15.9856C24.9221 15.6165 25.0004 15.221 25 14.8216V3.41705C25 3.01796 24.9214 2.62279 24.7686 2.25412C24.6158 1.88544 24.3918 1.55049 24.1095 1.2684C23.8272 0.986317 23.4921 0.762624 23.1233 0.610109C22.7545 0.457594 22.3593 0.379247 21.9602 0.379546ZM9.16023 13.6364V4.60795L17.267 9.11932L9.16023 13.6364Z" fill="white"/>
</svg>
