<svg width="22" height="22" viewBox="0 0 22 22" fill="none" xmlns="http://www.w3.org/2000/svg">
<path d="M15.4457 0H6.5543C4.8164 0.00129279 3.15005 0.675807 1.92117 1.87543C0.69229 3.07505 0.00132432 4.70172 0 6.39824V15.0779C0.00105946 16.7746 0.691908 18.4016 1.92082 19.6014C3.14973 20.8012 4.81622 21.4759 6.5543 21.4772H15.4457C17.1837 21.4756 18.85 20.8009 20.0789 19.6011C21.3077 18.4013 21.9987 16.7746 22 15.0779V6.39824C21.9992 4.70156 21.3084 3.07459 20.0794 1.87486C18.8504 0.675124 17.1838 0.000776099 15.4457 0ZM19.7879 15.0779C19.7876 16.2021 19.3301 17.2801 18.5158 18.075C17.7015 18.8698 16.5972 19.3165 15.4457 19.3168H6.5543C5.98412 19.3168 5.41953 19.2071 4.89276 18.9941C4.366 18.781 3.88738 18.4688 3.48425 18.0752C3.08112 17.6816 2.76137 17.2143 2.54327 16.7C2.32516 16.1857 2.21297 15.6345 2.2131 15.0779V6.39824C2.21297 5.84169 2.32517 5.29056 2.54329 4.77634C2.76141 4.26213 3.08117 3.7949 3.48431 3.40135C3.88746 3.00781 4.36608 2.69566 4.89284 2.48273C5.41959 2.26981 5.98417 2.16028 6.5543 2.16041H15.4457C16.597 2.16067 17.701 2.60723 18.5151 3.40193C19.3292 4.19662 19.7866 5.27438 19.7869 6.39824L19.7879 15.0779Z" fill="white"/>
<path d="M11.0005 5.18435C7.86236 5.18435 5.31225 7.67472 5.31225 10.7372C5.31225 13.7996 7.86336 16.29 11.0005 16.29C14.1376 16.29 16.6888 13.7996 16.6888 10.7372C16.6888 7.67472 14.1386 5.18435 11.0005 5.18435ZM11.0005 14.1296C10.0788 14.1297 9.19486 13.7724 8.54305 13.1363C7.89124 12.5002 7.52498 11.6374 7.52485 10.7377C7.52471 9.83793 7.89072 8.97501 8.54234 8.33872C9.19397 7.70242 10.0778 7.34488 10.9995 7.34476C11.9212 7.34463 12.8051 7.70192 13.457 8.33803C14.1088 8.97414 14.475 9.83696 14.4752 10.7367C14.4753 11.6364 14.1093 12.4993 13.4577 13.1356C12.806 13.7719 11.9222 14.1295 11.0005 14.1296ZM16.7008 3.89474C16.9703 3.89494 17.2337 3.97311 17.4577 4.1194C17.6817 4.26568 17.8562 4.4735 17.9593 4.7166C18.0623 4.9597 18.0892 5.22716 18.0366 5.48518C17.984 5.7432 17.8542 5.9802 17.6636 6.16623C17.473 6.35226 17.2302 6.47897 16.9659 6.53034C16.7016 6.58172 16.4276 6.55545 16.1786 6.45486C15.9296 6.35427 15.7167 6.18387 15.5668 5.96521C15.417 5.74654 15.3369 5.48941 15.3367 5.22633C15.3367 4.4922 15.8467 3.89474 16.7008 3.89474Z" fill="white"/>
</svg>
