<svg width="17" height="22" viewBox="0 0 17 22" fill="none" xmlns="http://www.w3.org/2000/svg">
<path d="M6.98879 14.5499C6.41406 17.5792 5.71368 20.4831 3.63657 22C2.99628 17.4219 4.57733 13.9845 5.31268 10.3348C4.05942 8.2118 5.46347 3.94169 8.10438 4.99436C11.355 6.28794 5.28974 12.8834 9.36092 13.7084C13.6124 14.5675 15.3475 6.28354 12.711 3.58969C8.9031 -0.302023 1.62501 3.4984 2.52098 9.06978C2.73841 10.4315 4.1359 10.844 3.07932 12.7239C0.641634 12.1805 -0.0860664 10.2446 0.00790087 7.66401C0.158686 3.4401 3.77643 0.48446 7.40618 0.0741691C11.9964 -0.44392 16.3047 1.77143 16.9002 6.11744C17.5699 11.0244 14.8285 16.3395 9.91926 15.9567C8.58842 15.8522 8.03118 15.1878 6.98879 14.5499Z" fill="white"/>
</svg>
