<svg width="230" height="40" viewBox="0 0 230 40" fill="none" xmlns="http://www.w3.org/2000/svg">
<g clip-path="url(#clip0_12630_185902)">
<path d="M34.518 1.80762H2.82812V36.5249H34.518V1.80762Z" fill="white"/>
<path d="M37.4156 0H1.20394C0.541308 0 0 0.560657 0 1.24698V38.753C0 39.4393 0.541308 40 1.20394 40H37.4156C38.0782 40 38.6195 39.4393 38.6195 38.753V1.24698C38.6195 0.560657 38.0782 0 37.4156 0ZM14.7087 7.55437L18.6985 14.7124L16.6919 18.3084L10.7002 7.55437H14.7087ZM14.7273 23.5669L9.81354 14.7463V33.3881H6.34171V7.55437H9.81354L16.7339 19.971L25.9688 3.39778H29.9773L16.7292 27.1677L14.7226 23.5718L14.7273 23.5669ZM32.0912 33.3881H28.6193V14.7511L21.7037 27.1532H17.6952L28.6147 7.55921H32.0865V33.3929L32.0912 33.3881Z" fill="#D32B25"/>
<path d="M70.9395 33.3882L70.8695 19.6956L64.4578 30.8411H61.3219L54.9429 20.0629V33.3882H48.4238V7.55444H54.2336L62.9972 22.465L71.5508 7.55444H77.3605L77.4305 33.3882H70.9441H70.9395Z" fill="white"/>
<path d="M104.006 27.7429V33.3882H83.9824V7.55444H103.544V13.1997H90.9681V17.5544H102.051V23.016H90.9681V27.7381H104.011L104.006 27.7429Z" fill="white"/>
<path d="M115.158 13.3495H107.496V7.55444H129.839V13.3495H122.214V33.3882H115.158V13.3495Z" fill="white"/>
<path d="M154.964 27.5979V33.393H132.621V28.8159L145.197 13.3543H132.938V7.55444H154.423V12.1315L141.847 27.5931H154.959L154.964 27.5979Z" fill="white"/>
<path d="M160.34 7.55444H167.396V27.5979H179.295V33.393H160.34V7.55444Z" fill="white"/>
<path d="M202.244 27.7429V33.3882H182.221V7.55444H201.782V13.1997H189.206V17.5544H200.289V23.016H189.206V27.7381H202.249L202.244 27.7429Z" fill="white"/>
<path d="M217.923 26.525H214.073V33.3882H207.018V7.55444H218.418C220.676 7.55444 222.636 7.9411 224.297 8.71442C225.959 9.48774 227.242 10.5946 228.147 12.0349C229.048 13.4752 229.501 15.1668 229.501 17.1098C229.501 19.0528 229.081 20.6091 228.236 22.001C227.391 23.393 226.187 24.4805 224.619 25.2683L230 33.3882H222.445L217.918 26.525H217.923ZM221.274 14.3113C220.536 13.6492 219.444 13.3157 217.993 13.3157H214.073V20.8797H217.993C219.44 20.8797 220.536 20.5559 221.274 19.9034C222.011 19.2509 222.38 18.3229 222.38 17.1194C222.38 15.916 222.011 14.9783 221.274 14.3162V14.3113Z" fill="white"/>
</g>
<defs>
<clipPath id="clip0_12630_185902">
<rect width="230" height="40" fill="white"/>
</clipPath>
</defs>
</svg>
