<svg width="30" height="30" viewBox="0 0 30 30" fill="none" xmlns="http://www.w3.org/2000/svg">
<path d="M29 15.3451C29 14.3228 28.8886 13.3005 28.7762 12.2772H14.792V18.0716H22.7345C22.3993 19.8889 21.3917 21.5931 19.8261 22.6164V26.3652H24.6364C27.4334 23.7519 29 19.8889 29 15.3451Z" fill="#4285F4"/>
<path d="M14.798 30C18.8254 30 22.1815 28.6362 24.6423 26.3643L19.832 22.6155C18.4892 23.5247 16.8112 24.0924 14.798 24.0924C10.9943 24.0924 7.63828 21.4791 6.52026 17.8434H1.5986V21.7064C4.17083 26.8189 9.2049 30 14.798 30Z" fill="#34A853"/>
<path d="M6.51588 17.8434C5.84448 16.0261 5.84448 13.9805 6.51588 12.049V8.18605H1.59422C-0.531407 12.3894 -0.531407 17.3889 1.59422 21.7054L6.51588 17.8434Z" fill="#FBBC04"/>
<path d="M14.7865 5.91465C16.9121 5.91465 18.9253 6.70966 20.4919 8.18655L24.7432 3.86902C22.0586 1.36982 18.4787 -0.107077 14.8989 0.00606383C9.3058 0.00606383 4.15934 3.18714 1.69851 8.2997L6.62017 12.1626C7.62778 8.528 10.9838 5.91465 14.7865 5.91465Z" fill="#EA4335"/>
</svg>
