<?xml version="1.0" encoding="UTF-8"?>
<svg id="Layer_2" data-name="Layer 2" xmlns="http://www.w3.org/2000/svg" viewBox="0 0 1095.83 184.29">
  <defs>
    <style>
      .cls-1 {
        fill: #1a171a;
      }

      .cls-2 {
        fill: #cc322b;
      }
    </style>
  </defs>
  <g id="Layer_1-2" data-name="Layer 1">
    <g id="Wort_Bildmarke_Classic" data-name="Wort Bildmarke Classic">
      <path class="cls-2" d="M178.55,0H5.75C2.58,0,0,2.58,0,5.75v172.8c0,3.16,2.58,5.75,5.75,5.75h172.8c3.16,0,5.75-2.58,5.75-5.75V5.75c0-3.16-2.58-5.75-5.75-5.75ZM70.19,34.81l19.04,32.98-9.58,16.57-28.59-49.55h19.13ZM70.28,108.58h0l-23.45-40.64v85.89h-16.57V34.81h16.57l33.02,57.21L123.92,15.65h19.13l-63.22,109.52-9.58-16.57.02-.02ZM153.14,153.83h-16.57v-85.87l-33,57.14h-19.13l52.11-90.28h16.57v119.02l.02-.02Z"/>
      <g id="Wortmarke_Schwarz_HEX:_1a171b" data-name="Wortmarke Schwarz HEX: 1a171b">
        <path class="cls-1" d="M338.52,153.83l-.33-63.09-30.6,51.35h-14.96l-30.44-49.66v61.39h-31.11V34.81h27.72l41.82,68.7,40.82-68.7h27.72l.33,119.02h-30.98Z"/>
        <path class="cls-1" d="M489.31,127.82v26.01h-95.55V34.81h95.58v26.01s-62.24,0-62.24,0v20.06h52.89v25.16h-52.89v21.76h62.24l-.02.02Z"/>
        <path class="cls-1" d="M965.1,127.82v26.01h-95.55V34.81h95.58v26.01s-62.24,0-62.24,0v20.06h52.89v25.16h-52.89v21.76h62.24l-.02.02Z"/>
        <path class="cls-1" d="M544.54,61.5h-36.56v-26.7h106.62v26.7h-36.39v92.32h-33.67V61.5Z"/>
        <path class="cls-1" d="M737.47,127.13v26.72s-104.14,0-104.14,0v-21.09l60.01-71.24h-60.12v-26.72h104.14v21.09l-60.01,71.24h62.57-2.45Z"/>
        <path class="cls-1" d="M758.29,34.79h33.67v92.35h56.78v26.7h-90.45V34.79Z"/>
        <path class="cls-1" d="M1038.2,122.21h-18.37v31.62h-33.67V34.81h54.4c10.78,0,20.13,1.78,28.06,5.34,7.93,3.56,14.05,8.66,18.37,15.3,4.3,6.64,6.46,14.43,6.46,23.38s-2,16.12-6.03,22.54c-4.03,6.41-9.78,11.42-17.26,15.05l25.68,37.41h-36.05l-21.6-31.62h.02ZM1054.19,65.94c-3.52-3.05-8.73-4.59-15.65-4.59h-18.71v34.85h18.71c6.9,0,12.14-1.49,15.65-4.5,3.52-3.01,5.28-7.28,5.28-12.83s-1.76-9.86-5.28-12.92v-.02Z"/>
      </g>
    </g>
  </g>
</svg>